{
    "asset" : {
        "generator" : "Khronos glTF Blender I/O v1.6.16",
        "version" : "2.0"
    },
    "scene" : 0,
    "scenes" : [
        {
            "name" : "Scene",
            "nodes" : [
                0,
                1,
                2,
                3,
                4,
                5,
                6,
                7,
                8,
                9,
                10,
                11,
                12,
                13,
                14,
                15,
                16
            ]
        }
    ],
    "nodes" : [
        {
            "name" : "Light",
            "rotation" : [
                0.16907575726509094,
                0.7558803558349609,
                -0.27217137813568115,
                0.570947527885437
            ],
            "translation" : [
                4.076245307922363,
                5.903861999511719,
                -1.0054539442062378
            ]
        },
        {
            "name" : "Camera",
            "rotation" : [
                0.483536034822464,
                0.33687159419059753,
                -0.20870360732078552,
                0.7804827094078064
            ],
            "translation" : [
                7.358891487121582,
                4.958309173583984,
                6.925790786743164
            ]
        },
        {
            "mesh" : 0,
            "name" : "inceptor_right_arm.001",
            "translation" : [
                1.2244666814804077,
                22.46350860595703,
                5.109857559204102
            ]
        },
        {
            "mesh" : 1,
            "name" : "inceptor_right_arm.002",
            "translation" : [
                1.2244666814804077,
                22.46350860595703,
                5.109857559204102
            ]
        },
        {
            "mesh" : 2,
            "name" : "inceptor_right_arm.003",
            "translation" : [
                1.2244666814804077,
                22.46350860595703,
                5.109857559204102
            ]
        },
        {
            "mesh" : 3,
            "name" : "inceptor_right_arm.004",
            "translation" : [
                1.2244666814804077,
                22.46350860595703,
                5.109857559204102
            ]
        },
        {
            "mesh" : 4,
            "name" : "inceptor_right_arm.005",
            "translation" : [
                1.2244666814804077,
                22.46350860595703,
                5.109857559204102
            ]
        },
        {
            "mesh" : 5,
            "name" : "inceptor_right_arm.006",
            "translation" : [
                1.2244666814804077,
                22.46350860595703,
                5.109857559204102
            ]
        },
        {
            "mesh" : 6,
            "name" : "inceptor_right_arm.007",
            "translation" : [
                1.2244666814804077,
                22.46350860595703,
                5.109857559204102
            ]
        },
        {
            "mesh" : 7,
            "name" : "inceptor_torso.001"
        },
        {
            "mesh" : 8,
            "name" : "inceptor_torso.002"
        },
        {
            "mesh" : 9,
            "name" : "inceptor_torso.003"
        },
        {
            "mesh" : 10,
            "name" : "inceptor_torso.005"
        },
        {
            "mesh" : 11,
            "name" : "inceptor_torso.006"
        },
        {
            "mesh" : 12,
            "name" : "inceptor_torso.008"
        },
        {
            "mesh" : 13,
            "name" : "inceptor_torso.007"
        },
        {
            "mesh" : 14,
            "name" : "inceptor_torso.004"
        }
    ],
    "meshes" : [
        {
            "name" : "inceptor_right_arm.001",
            "primitives" : [
                {
                    "attributes" : {
                        "POSITION" : 0,
                        "NORMAL" : 1
                    },
                    "indices" : 2
                }
            ]
        },
        {
            "name" : "inceptor_right_arm.002",
            "primitives" : [
                {
                    "attributes" : {
                        "POSITION" : 3,
                        "NORMAL" : 4
                    },
                    "indices" : 5
                }
            ]
        },
        {
            "name" : "inceptor_right_arm.003",
            "primitives" : [
                {
                    "attributes" : {
                        "POSITION" : 6,
                        "NORMAL" : 7
                    },
                    "indices" : 8
                }
            ]
        },
        {
            "name" : "inceptor_right_arm.005",
            "primitives" : [
                {
                    "attributes" : {
                        "POSITION" : 9,
                        "NORMAL" : 10
                    },
                    "indices" : 11
                }
            ]
        },
        {
            "name" : "inceptor_right_arm.006",
            "primitives" : [
                {
                    "attributes" : {
                        "POSITION" : 12,
                        "NORMAL" : 13
                    },
                    "indices" : 14
                }
            ]
        },
        {
            "name" : "inceptor_right_arm.007",
            "primitives" : [
                {
                    "attributes" : {
                        "POSITION" : 15,
                        "NORMAL" : 16
                    },
                    "indices" : 17
                }
            ]
        },
        {
            "name" : "inceptor_right_arm.008",
            "primitives" : [
                {
                    "attributes" : {
                        "POSITION" : 18,
                        "NORMAL" : 19
                    },
                    "indices" : 20
                }
            ]
        },
        {
            "name" : "inceptor_torso.001",
            "primitives" : [
                {
                    "attributes" : {
                        "POSITION" : 21,
                        "NORMAL" : 22
                    },
                    "indices" : 23
                }
            ]
        },
        {
            "name" : "inceptor_torso.002",
            "primitives" : [
                {
                    "attributes" : {
                        "POSITION" : 24,
                        "NORMAL" : 25
                    },
                    "indices" : 26
                }
            ]
        },
        {
            "name" : "inceptor_torso.003",
            "primitives" : [
                {
                    "attributes" : {
                        "POSITION" : 27,
                        "NORMAL" : 28
                    },
                    "indices" : 29
                }
            ]
        },
        {
            "name" : "inceptor_torso.005",
            "primitives" : [
                {
                    "attributes" : {
                        "POSITION" : 30,
                        "NORMAL" : 31
                    },
                    "indices" : 32
                }
            ]
        },
        {
            "name" : "inceptor_torso.006",
            "primitives" : [
                {
                    "attributes" : {
                        "POSITION" : 33,
                        "NORMAL" : 34
                    },
                    "indices" : 35
                }
            ]
        },
        {
            "name" : "inceptor_torso.008",
            "primitives" : [
                {
                    "attributes" : {
                        "POSITION" : 36,
                        "NORMAL" : 37
                    },
                    "indices" : 38
                }
            ]
        },
        {
            "name" : "inceptor_torso.010",
            "primitives" : [
                {
                    "attributes" : {
                        "POSITION" : 39,
                        "NORMAL" : 40
                    },
                    "indices" : 41
                }
            ]
        },
        {
            "name" : "inceptor_torso.011",
            "primitives" : [
                {
                    "attributes" : {
                        "POSITION" : 42,
                        "NORMAL" : 43
                    },
                    "indices" : 44
                }
            ]
        }
    ],
    "accessors" : [
        {
            "bufferView" : 0,
            "componentType" : 5126,
            "count" : 8806,
            "max" : [
                -24.01267433166504,
                12.649184226989746,
                15.556721687316895
            ],
            "min" : [
                -30.69658088684082,
                5.705321788787842,
                8.672457695007324
            ],
            "type" : "VEC3"
        },
        {
            "bufferView" : 1,
            "componentType" : 5126,
            "count" : 8806,
            "type" : "VEC3"
        },
        {
            "bufferView" : 2,
            "componentType" : 5123,
            "count" : 8808,
            "type" : "SCALAR"
        },
        {
            "bufferView" : 3,
            "componentType" : 5126,
            "count" : 2010,
            "max" : [
                -22.469738006591797,
                11.305716514587402,
                10.927637100219727
            ],
            "min" : [
                -23.636455535888672,
                9.698027610778809,
                9.34286880493164
            ],
            "type" : "VEC3"
        },
        {
            "bufferView" : 4,
            "componentType" : 5126,
            "count" : 2010,
            "type" : "VEC3"
        },
        {
            "bufferView" : 5,
            "componentType" : 5123,
            "count" : 2010,
            "type" : "SCALAR"
        },
        {
            "bufferView" : 6,
            "componentType" : 5126,
            "count" : 5295,
            "max" : [
                -28.348491668701172,
                7.884000778198242,
                17.443809509277344
            ],
            "min" : [
                -33.1943473815918,
                2.171998977661133,
                11.652328491210938
            ],
            "type" : "VEC3"
        },
        {
            "bufferView" : 7,
            "componentType" : 5126,
            "count" : 5295,
            "type" : "VEC3"
        },
        {
            "bufferView" : 8,
            "componentType" : 5123,
            "count" : 5295,
            "type" : "SCALAR"
        },
        {
            "bufferView" : 9,
            "componentType" : 5126,
            "count" : 14270,
            "max" : [
                -28.152355194091797,
                8.47800064086914,
                17.636852264404297
            ],
            "min" : [
                -33.33164596557617,
                1.9910837411880493,
                11.224447250366211
            ],
            "type" : "VEC3"
        },
        {
            "bufferView" : 10,
            "componentType" : 5126,
            "count" : 14270,
            "type" : "VEC3"
        },
        {
            "bufferView" : 11,
            "componentType" : 5123,
            "count" : 14274,
            "type" : "SCALAR"
        },
        {
            "bufferView" : 12,
            "componentType" : 5126,
            "count" : 2853,
            "max" : [
                -30.587871551513672,
                6.2494025230407715,
                17.868953704833984
            ],
            "min" : [
                -33.37455368041992,
                2.3211984634399414,
                13.838008880615234
            ],
            "type" : "VEC3"
        },
        {
            "bufferView" : 13,
            "componentType" : 5126,
            "count" : 2853,
            "type" : "VEC3"
        },
        {
            "bufferView" : 14,
            "componentType" : 5123,
            "count" : 2853,
            "type" : "SCALAR"
        },
        {
            "bufferView" : 15,
            "componentType" : 5126,
            "count" : 186,
            "max" : [
                -31.246471405029297,
                5.5698466300964355,
                17.509719848632812
            ],
            "min" : [
                -33.0339469909668,
                2.805509328842163,
                14.259151458740234
            ],
            "type" : "VEC3"
        },
        {
            "bufferView" : 16,
            "componentType" : 5126,
            "count" : 186,
            "type" : "VEC3"
        },
        {
            "bufferView" : 17,
            "componentType" : 5123,
            "count" : 186,
            "type" : "SCALAR"
        },
        {
            "bufferView" : 18,
            "componentType" : 5126,
            "count" : 1173,
            "max" : [
                -15.88869571685791,
                13.708793640136719,
                1.2495825290679932
            ],
            "min" : [
                -21.721172332763672,
                7.863204479217529,
                -5.171217918395996
            ],
            "type" : "VEC3"
        },
        {
            "bufferView" : 19,
            "componentType" : 5126,
            "count" : 1173,
            "type" : "VEC3"
        },
        {
            "bufferView" : 20,
            "componentType" : 5123,
            "count" : 1173,
            "type" : "SCALAR"
        },
        {
            "bufferView" : 21,
            "componentType" : 5126,
            "count" : 48005,
            "max" : [
                -6.9853315353393555,
                34.75357437133789,
                12.748319625854492
            ],
            "min" : [
                -26.002565383911133,
                22.463138580322266,
                -4.956411361694336
            ],
            "type" : "VEC3"
        },
        {
            "bufferView" : 22,
            "componentType" : 5126,
            "count" : 48005,
            "type" : "VEC3"
        },
        {
            "bufferView" : 23,
            "componentType" : 5123,
            "count" : 48051,
            "type" : "SCALAR"
        },
        {
            "bufferView" : 24,
            "componentType" : 5126,
            "count" : 55376,
            "max" : [
                -17.021333694458008,
                41.5615119934082,
                22.543317794799805
            ],
            "min" : [
                -31.962373733520508,
                24.67647933959961,
                3.464305877685547
            ],
            "type" : "VEC3"
        },
        {
            "bufferView" : 25,
            "componentType" : 5126,
            "count" : 55376,
            "type" : "VEC3"
        },
        {
            "bufferView" : 26,
            "componentType" : 5123,
            "count" : 55482,
            "type" : "SCALAR"
        },
        {
            "bufferView" : 27,
            "componentType" : 5126,
            "count" : 6831,
            "max" : [
                -22.940248489379883,
                32.73307418823242,
                18.349123001098633
            ],
            "min" : [
                -29.196382522583008,
                27.753469467163086,
                13.329679489135742
            ],
            "type" : "VEC3"
        },
        {
            "bufferView" : 28,
            "componentType" : 5126,
            "count" : 6831,
            "type" : "VEC3"
        },
        {
            "bufferView" : 29,
            "componentType" : 5123,
            "count" : 6831,
            "type" : "SCALAR"
        },
        {
            "bufferView" : 30,
            "componentType" : 5126,
            "count" : 8130,
            "max" : [
                -19.002351760864258,
                33.577720642089844,
                13.786521911621094
            ],
            "min" : [
                -24.752870559692383,
                30.235715866088867,
                5.677803039550781
            ],
            "type" : "VEC3"
        },
        {
            "bufferView" : 31,
            "componentType" : 5126,
            "count" : 8130,
            "type" : "VEC3"
        },
        {
            "bufferView" : 32,
            "componentType" : 5123,
            "count" : 8130,
            "type" : "SCALAR"
        },
        {
            "bufferView" : 33,
            "componentType" : 5126,
            "count" : 11390,
            "max" : [
                -18.825624465942383,
                38.08150863647461,
                15.321338653564453
            ],
            "min" : [
                -24.976076126098633,
                30.753936767578125,
                9.23519515991211
            ],
            "type" : "VEC3"
        },
        {
            "bufferView" : 34,
            "componentType" : 5126,
            "count" : 11390,
            "type" : "VEC3"
        },
        {
            "bufferView" : 35,
            "componentType" : 5123,
            "count" : 11406,
            "type" : "SCALAR"
        },
        {
            "bufferView" : 36,
            "componentType" : 5126,
            "count" : 17693,
            "max" : [
                -19.557985305786133,
                32.17342758178711,
                15.446666717529297
            ],
            "min" : [
                -27.292024612426758,
                25.27780532836914,
                6.27830696105957
            ],
            "type" : "VEC3"
        },
        {
            "bufferView" : 37,
            "componentType" : 5126,
            "count" : 17693,
            "type" : "VEC3"
        },
        {
            "bufferView" : 38,
            "componentType" : 5123,
            "count" : 17772,
            "type" : "SCALAR"
        },
        {
            "bufferView" : 39,
            "componentType" : 5126,
            "count" : 49740,
            "max" : [
                -16.707979202270508,
                40.06587600708008,
                12.926839828491211
            ],
            "min" : [
                -21.518587112426758,
                34.88605499267578,
                7.666851043701172
            ],
            "type" : "VEC3"
        },
        {
            "bufferView" : 40,
            "componentType" : 5126,
            "count" : 49740,
            "type" : "VEC3"
        },
        {
            "bufferView" : 41,
            "componentType" : 5123,
            "count" : 49845,
            "type" : "SCALAR"
        },
        {
            "bufferView" : 42,
            "componentType" : 5126,
            "count" : 678,
            "max" : [
                -19.036317825317383,
                37.988685607910156,
                13.928096771240234
            ],
            "min" : [
                -21.806947708129883,
                34.88605499267578,
                9.286394119262695
            ],
            "type" : "VEC3"
        },
        {
            "bufferView" : 43,
            "componentType" : 5126,
            "count" : 678,
            "type" : "VEC3"
        },
        {
            "bufferView" : 44,
            "componentType" : 5123,
            "count" : 678,
            "type" : "SCALAR"
        }
    ],
    "bufferViews" : [
        {
            "buffer" : 0,
            "byteLength" : 105672,
            "byteOffset" : 0
        },
        {
            "buffer" : 0,
            "byteLength" : 105672,
            "byteOffset" : 105672
        },
        {
            "buffer" : 0,
            "byteLength" : 17616,
            "byteOffset" : 211344
        },
        {
            "buffer" : 0,
            "byteLength" : 24120,
            "byteOffset" : 228960
        },
        {
            "buffer" : 0,
            "byteLength" : 24120,
            "byteOffset" : 253080
        },
        {
            "buffer" : 0,
            "byteLength" : 4020,
            "byteOffset" : 277200
        },
        {
            "buffer" : 0,
            "byteLength" : 63540,
            "byteOffset" : 281220
        },
        {
            "buffer" : 0,
            "byteLength" : 63540,
            "byteOffset" : 344760
        },
        {
            "buffer" : 0,
            "byteLength" : 10590,
            "byteOffset" : 408300
        },
        {
            "buffer" : 0,
            "byteLength" : 171240,
            "byteOffset" : 418892
        },
        {
            "buffer" : 0,
            "byteLength" : 171240,
            "byteOffset" : 590132
        },
        {
            "buffer" : 0,
            "byteLength" : 28548,
            "byteOffset" : 761372
        },
        {
            "buffer" : 0,
            "byteLength" : 34236,
            "byteOffset" : 789920
        },
        {
            "buffer" : 0,
            "byteLength" : 34236,
            "byteOffset" : 824156
        },
        {
            "buffer" : 0,
            "byteLength" : 5706,
            "byteOffset" : 858392
        },
        {
            "buffer" : 0,
            "byteLength" : 2232,
            "byteOffset" : 864100
        },
        {
            "buffer" : 0,
            "byteLength" : 2232,
            "byteOffset" : 866332
        },
        {
            "buffer" : 0,
            "byteLength" : 372,
            "byteOffset" : 868564
        },
        {
            "buffer" : 0,
            "byteLength" : 14076,
            "byteOffset" : 868936
        },
        {
            "buffer" : 0,
            "byteLength" : 14076,
            "byteOffset" : 883012
        },
        {
            "buffer" : 0,
            "byteLength" : 2346,
            "byteOffset" : 897088
        },
        {
            "buffer" : 0,
            "byteLength" : 576060,
            "byteOffset" : 899436
        },
        {
            "buffer" : 0,
            "byteLength" : 576060,
            "byteOffset" : 1475496
        },
        {
            "buffer" : 0,
            "byteLength" : 96102,
            "byteOffset" : 2051556
        },
        {
            "buffer" : 0,
            "byteLength" : 664512,
            "byteOffset" : 2147660
        },
        {
            "buffer" : 0,
            "byteLength" : 664512,
            "byteOffset" : 2812172
        },
        {
            "buffer" : 0,
            "byteLength" : 110964,
            "byteOffset" : 3476684
        },
        {
            "buffer" : 0,
            "byteLength" : 81972,
            "byteOffset" : 3587648
        },
        {
            "buffer" : 0,
            "byteLength" : 81972,
            "byteOffset" : 3669620
        },
        {
            "buffer" : 0,
            "byteLength" : 13662,
            "byteOffset" : 3751592
        },
        {
            "buffer" : 0,
            "byteLength" : 97560,
            "byteOffset" : 3765256
        },
        {
            "buffer" : 0,
            "byteLength" : 97560,
            "byteOffset" : 3862816
        },
        {
            "buffer" : 0,
            "byteLength" : 16260,
            "byteOffset" : 3960376
        },
        {
            "buffer" : 0,
            "byteLength" : 136680,
            "byteOffset" : 3976636
        },
        {
            "buffer" : 0,
            "byteLength" : 136680,
            "byteOffset" : 4113316
        },
        {
            "buffer" : 0,
            "byteLength" : 22812,
            "byteOffset" : 4249996
        },
        {
            "buffer" : 0,
            "byteLength" : 212316,
            "byteOffset" : 4272808
        },
        {
            "buffer" : 0,
            "byteLength" : 212316,
            "byteOffset" : 4485124
        },
        {
            "buffer" : 0,
            "byteLength" : 35544,
            "byteOffset" : 4697440
        },
        {
            "buffer" : 0,
            "byteLength" : 596880,
            "byteOffset" : 4732984
        },
        {
            "buffer" : 0,
            "byteLength" : 596880,
            "byteOffset" : 5329864
        },
        {
            "buffer" : 0,
            "byteLength" : 99690,
            "byteOffset" : 5926744
        },
        {
            "buffer" : 0,
            "byteLength" : 8136,
            "byteOffset" : 6026436
        },
        {
            "buffer" : 0,
            "byteLength" : 8136,
            "byteOffset" : 6034572
        },
        {
            "buffer" : 0,
            "byteLength" : 1356,
            "byteOffset" : 6042708
        }
    ],
    "buffers" : [
        {
            "byteLength" : 6044064,
            "uri" : "scene.bin"
        }
    ]
}
